<svg xmlns="http://www.w3.org/2000/svg" viewBox="0 0 1400 900" fill="none" stroke="#000" stroke-width="2.2" stroke-linecap="round" stroke-linejoin="round">
  <path d="M70 80H48v280h22"/>
  <rect x="96" y="96" width="150" height="34" rx="3" fill="#000" fill-opacity=".16"/>
  <rect x="96" y="142" width="150" height="34" rx="3" fill="#000" fill-opacity=".12"/>
  <rect x="96" y="188" width="150" height="34" rx="3" fill="#000" fill-opacity=".1"/>
  <rect x="96" y="234" width="150" height="34" rx="3" fill="#000" fill-opacity=".08"/>
  <rect x="96" y="280" width="150" height="34" rx="3" fill="#000" fill-opacity=".06"/>
  <path d="M270 188h70"/>
  <path d="M332 180 l14 8 -14 8" fill="#000" fill-opacity=".3"/>
  <rect x="350" y="164" width="70" height="48" rx="4"/>
  <rect x="1140" y="70" width="180" height="150"/>
  <path d="M1140 110h180M1140 168h180"/>
  <path d="M1180 250 1140 290 1220 290Z" fill="none"/>
  <path d="M1180 290v70"/>
  <rect x="1080" y="360" width="160" height="88"/>
  <path d="M1080 396h160"/>
  <rect x="80" y="640" width="200" height="120"/>
  <path d="M80 680h200M80 716h200"/>
  <path d="M1180 680h160"/>
  <path d="M1180 680c40 0 40 36 0 36s-40 36 0 72"/>
  <rect x="1220" y="760" width="120" height="28" rx="3" fill="#000" fill-opacity=".14"/>
  <rect x="1244" y="800" width="96" height="28" rx="3" fill="#000" fill-opacity=".1"/>
</svg>
