<svg xmlns="http://www.w3.org/2000/svg" viewBox="0 0 1400 900" fill="none" stroke="#000" stroke-width="2.2" stroke-linecap="round" stroke-linejoin="round">
  <rect x="70" y="80" width="180" height="26" rx="13" fill="#000" fill-opacity=".2"/>
  <rect x="90" y="118" width="140" height="26" rx="13" fill="#000" fill-opacity=".16"/>
  <rect x="110" y="156" width="100" height="26" rx="13" fill="#000" fill-opacity=".12"/>
  <rect x="128" y="194" width="64" height="26" rx="13" fill="#000" fill-opacity=".08"/>
  <circle cx="232" cy="58" r="14" fill="#000" fill-opacity=".35"/>
  <path d="M244 52 l16 6 -16 6"/>
  <rect x="1160" y="90" width="160" height="22" rx="11" fill="#000" fill-opacity=".18"/>
  <rect x="1176" y="124" width="128" height="22" rx="11" fill="#000" fill-opacity=".14"/>
  <path d="M1160 168h160" stroke-width="4"/>
  <rect x="1192" y="184" width="96" height="22" rx="11" fill="#000" fill-opacity=".1"/>
  <rect x="1208" y="218" width="64" height="22" rx="11" fill="#000" fill-opacity=".08"/>
  <rect x="90" y="620" width="150" height="22" rx="11" fill="#000" fill-opacity=".16"/>
  <rect x="106" y="654" width="118" height="22" rx="11" fill="#000" fill-opacity=".12"/>
  <rect x="122" y="688" width="86" height="22" rx="11" fill="#000" fill-opacity=".09"/>
  <rect x="1120" y="640" width="190" height="24" rx="12" fill="#000" fill-opacity=".18"/>
  <rect x="1140" y="678" width="150" height="24" rx="12" fill="#000" fill-opacity=".14"/>
  <rect x="1160" y="716" width="110" height="24" rx="12" fill="#000" fill-opacity=".1"/>
  <rect x="1180" y="754" width="70" height="24" rx="12" fill="#000" fill-opacity=".08"/>
  <circle cx="1290" cy="618" r="13" fill="#000" fill-opacity=".3"/>
  <path d="M1300 612 l14 6 -14 6"/>
</svg>
